<!-- Copyright © 2015 MODULUS Sp. z o. o. / FUTURAMO™ --><svg xmlns="http://www.w3.org/2000/svg" x="0px" y="0px" width="64px" height="64px" viewBox="0 0 32 32"><path  fill="#666666" d="M19.812,2c0.313,0,0.623,0.104,0.946,0.317c0.787,0.519,1.179,1.123,1.235,1.901 c0.087,1.219-0.687,2.605-1.46,3.29l-0.088,0.078l-0.078,0.088c-0.184,0.207-0.362,0.398-0.533,0.582 c-1.75,1.887-2.821,3.346-2.944,7.688L16.889,16l0.002,0.057c0.123,4.342,1.194,5.801,2.944,7.688 c0.17,0.184,0.348,0.375,0.532,0.582l0.078,0.088l0.088,0.078c0.772,0.684,1.547,2.07,1.46,3.289 c-0.055,0.778-0.448,1.383-1.235,1.902C20.435,29.896,20.126,30,19.812,30c-0.671,0-1.521-0.483-2.395-1.361L16,27.217l-1.417,1.422 C13.709,29.517,12.858,30,12.188,30c-0.313,0-0.623-0.104-0.946-0.317c-0.787-0.519-1.179-1.123-1.235-1.901 c-0.087-1.219,0.687-2.605,1.46-3.29l0.088-0.078l0.078-0.088c0.184-0.207,0.362-0.398,0.533-0.582 c1.75-1.887,2.821-3.346,2.944-7.688L15.111,16l-0.002-0.057c-0.123-4.342-1.194-5.801-2.944-7.688 c-0.17-0.184-0.348-0.375-0.532-0.582l-0.078-0.088l-0.088-0.078c-0.772-0.684-1.547-2.07-1.46-3.289 c0.055-0.778,0.448-1.383,1.235-1.902C11.565,2.104,11.874,2,12.188,2c0.671,0,1.521,0.483,2.396,1.361L16,4.783l1.417-1.422 C18.291,2.483,19.142,2,19.812,2 M19.812,0C18.57,0,17.278,0.666,16,1.949C14.722,0.666,13.43,0,12.188,0 C11.486,0,10.8,0.213,10.14,0.647c-3.616,2.385-1.976,6.607,0,8.358c1.69,1.894,2.845,2.588,2.97,6.995 c-0.125,4.408-1.28,5.102-2.97,6.995c-1.976,1.751-3.616,5.973,0,8.358C10.799,31.787,11.486,32,12.188,32 c1.243,0,2.535-0.666,3.813-1.949C17.278,31.334,18.57,32,19.812,32c0.702,0,1.388-0.213,2.047-0.647 c3.616-2.385,1.976-6.607,0-8.358c-1.69-1.894-2.845-2.588-2.97-6.995c0.125-4.408,1.28-5.102,2.97-6.995 c1.976-1.75,3.616-5.973,0-8.358C21.201,0.213,20.514,0,19.812,0L19.812,0z"></path></svg>