<!-- Copyright © 2015 MODULUS Sp. z o. o. / FUTURAMO™ --><svg xmlns="http://www.w3.org/2000/svg" x="0px" y="0px" width="64px" height="64px" viewBox="0 0 32 32"><path  fill="#666666" d="M21.713,2c0.243,0,0.518,0.041,0.817,0.121c0.597,0.187,1.906,0.646,1.906,3.444v2h2 c2.79,0,3.255,1.307,3.444,1.906c0.269,1.003,0.033,1.471-0.169,1.736c-0.746,0.979-2.869,1.491-4.581,1.491h-0.117l-0.116,0.014 l-0.311,0.036c-2.743,0.315-4.219,0.616-7.772,3.995l-0.037,0.035l-0.035,0.037c-3.382,3.56-3.682,5.036-3.995,7.78l-0.035,0.303 l-0.013,0.115v0.116c0,1.264-0.443,4.871-2.413,4.871c-0.243,0-0.517-0.041-0.815-0.121c-0.599-0.188-1.907-0.651-1.907-3.444 l-0.008-2h-2c-2.782,0-3.247-1.307-3.436-1.906c-0.269-1.003-0.033-1.471,0.169-1.736c0.746-0.979,2.871-1.492,4.585-1.492h0.116 l0.115-0.013l0.304-0.035c2.743-0.313,4.22-0.614,7.775-3.996l0.036-0.034l0.034-0.036c3.383-3.557,3.683-5.035,3.996-7.781 l0.035-0.304l0.013-0.113l0-0.114C19.303,5.61,19.75,2,21.713,2 M21.713,0c-3.561,0-4.409,4.537-4.413,6.871 c-0.293,2.527-0.289,3.568-3.493,6.937c-3.368,3.204-4.409,3.2-6.932,3.494c-2.613,0-7.977,1.062-6.674,5.79 c0.754,2.408,2.758,3.343,5.355,3.343c0.003,0,0.006,0,0.008,0c0,2.604,0.935,4.611,3.345,5.364C9.408,31.937,9.866,32,10.287,32 c3.562,0,4.413-4.539,4.413-6.871c0.293-2.525,0.29-3.564,3.494-6.937c3.368-3.204,4.409-3.198,6.936-3.494 c2.609,0,7.973-1.062,6.67-5.79c-0.755-2.41-2.762-3.343-5.363-3.343c0-2.604-0.931-4.613-3.345-5.364 C22.592,0.063,22.134,0,21.713,0L21.713,0z"></path></svg>