<!-- Copyright © 2015 MODULUS Sp. z o. o. / FUTURAMO™ --><svg xmlns="http://www.w3.org/2000/svg" x="0px" y="0px" width="64px" height="64px" viewBox="0 0 32 32"><path  fill="#666666" d="M27.803,17.312c-0.434,0.434-1.14,0.433-1.574,0l-1.063-1.062c1.782-3.479,1.83-7.088-0.249-9.167 c-1.075-1.075-2.559-1.589-4.223-1.589c-1.558,0-3.271,0.466-4.955,1.33l-1.052-1.052c-0.434-0.433-0.434-1.14,0-1.574l2.623-2.623 L15.738,0l-2.623,2.623c-1.302,1.302-1.301,3.42,0,4.721l0.673,0.674c-0.684,0.496-1.352,1.054-1.985,1.687 c-0.18,0.18-0.321,0.375-0.489,0.56L7.082,6.033L5.508,7.607l4.409,4.409c-0.588,0.856-1.077,1.731-1.442,2.61l-2.533-1.407 c-1.296-0.72-2.934-0.49-3.982,0.558L0,15.738l1.574,1.574l1.96-1.961c0.35-0.349,0.896-0.426,1.328-0.186l2.919,1.622 c-0.48,2.38-0.053,4.58,1.399,6.033c1.075,1.075,2.559,1.589,4.223,1.589c0.582,0,1.188-0.078,1.804-0.202l1.628,2.931 c0.24,0.432,0.164,0.978-0.186,1.327l-1.96,1.961L16.262,32l1.96-1.961c1.048-1.048,1.278-2.685,0.558-3.982l-1.402-2.523 c0.883-0.367,1.766-0.841,2.625-1.432l4.39,4.39l1.574-1.574l-4.219-4.219c0.183-0.167,0.369-0.325,0.547-0.502 c0.635-0.635,1.181-1.308,1.678-1.995l0.683,0.683c1.301,1.301,3.419,1.302,4.721,0L32,16.262l-1.574-1.574L27.803,17.312z  M20.881,18.783c-0.176,0.176-0.362,0.338-0.546,0.503c-0.568,0.512-1.165,0.969-1.78,1.367c-0.706,0.457-1.43,0.837-2.153,1.122 c-0.755,0.298-1.504,0.495-2.224,0.58c-0.262,0.031-0.522,0.054-0.774,0.054c-0.824,0-1.979-0.174-2.809-1.004 c-0.843-0.843-1.121-2.129-0.949-3.583c0.084-0.711,0.274-1.459,0.578-2.225c0.284-0.715,0.668-1.434,1.13-2.146 c0.396-0.609,0.855-1.202,1.373-1.775c0.167-0.185,0.313-0.378,0.492-0.557c0.628-0.628,1.308-1.18,2.01-1.662l7.302,7.302 C22.044,17.465,21.51,18.154,20.881,18.783z M24.362,12.704c-0.135,0.673-0.39,1.36-0.695,2.045l-6.426-6.426 c1.183-0.528,2.37-0.83,3.455-0.83c0.823,0,1.979,0.174,2.808,1.004C24.736,9.728,24.57,11.661,24.362,12.704z"></path></svg>