<!-- Copyright © 2015 MODULUS Sp. z o. o. / FUTURAMO™ --><svg xmlns="http://www.w3.org/2000/svg" x="0px" y="0px" width="64px" height="64px" viewBox="0 0 32 32"><path  fill="#666666" d="M26.154,32H22.56c0,0-0.363-11.654-3.762-11.654C15.547,20.346,13.172,32,13.172,32H9.64 c0,0-1.695-9.156-2.508-11.701c-0.688-2.16-1.73-3.604-3.376-4.68c-1.519-0.992-2.984-3.445-3.401-5.115 c-0.451-1.801-0.344-8.857-0.344-8.857s2.937,3.588,6.838,3.564S12.746,0,12.746,0s4.785,3.656,4.846,8.232 c1.211-0.682,2.535-1.047,3.865-1.047c3.097,0,5.919,1.838,8.019,5.137C32,0,19.188,1.188,19.188,1.188s4.312-1.224,7.097-0.313 c3.152,1.031,4.649,3.844,5.149,5c1.225,2.838,0.306,8.043-1.248,13L26.154,32z M24.504,30h0.158 c0.61-2.076,3.775-10.719,4.087-13.781c0.296-2.908-4.228-7.033-7.291-7.033c-1.539,0-3.021,0.633-4.289,1.83l-2.04,1.93 l0.365-2.787c0.48-3.646-0.694-5.322-2.373-7.012c-1.855,2.656-3.828,3.988-6.005,4.061L6.849,7.211 c-2.065,0-3.311-0.801-4.788-1.854c-0.076,1.666-0.125,3.24,0.232,4.662c0.345,1.385,1.586,3.293,2.555,3.924 c2.03,1.326,3.36,3.152,4.187,5.746c0.706,2.213,1.861,8.068,2.272,10.311h0.215c0.675-3.229,2.902-11.654,7.276-11.654 C23.471,18.346,24.342,26.865,24.504,30z M13.678,6.873c-3.387,0.469-3.126,3.089-3.126,3.089 C14.442,9.985,13.678,6.873,13.678,6.873z M7.892,10.638c0,0-1.07-2.702-3.97-1.627C3.922,9.011,4.389,12.104,7.892,10.638z"></path></svg>