<!-- Copyright © 2015 MODULUS Sp. z o. o. / FUTURAMO™ --><svg xmlns="http://www.w3.org/2000/svg" x="0px" y="0px" width="64px" height="64px" viewBox="0 0 32 32"><path  fill="#666666" d="M19.587,3.937L16,0v9.107c0,2.482,1.361,4.649,3.392,5.845c-2.777,2.511-6.418,6.763-7.321,12.296 c-3.087-0.071-5.703-1.873-6.759-3.741c-0.774-1.368-1.257-3.486,0.836-5.813c0.758-0.844,1.624-1.686,2.497-2.535 c2.661-2.586,5.174-5.03,5.393-8.179c0.138-1.982-0.374-3.694-1.478-4.952C11.436,0.746,9.759,0.007,7.961,0 C7.953,0,7.943,0,7.935,0C4.179,0,2.411,3.099,2,4.742l1.939,0.49C3.974,5.099,4.816,2,7.935,2c0.006,0,0.013,0,0.019,0 c1.244,0.004,2.346,0.483,3.104,1.347c0.744,0.848,1.085,2.057,0.985,3.494c-0.166,2.386-2.413,4.571-4.829,6.919 c-0.861,0.837-1.75,1.703-2.554,2.597c-3.153,3.506-1.813,6.856-1.09,8.134c1.323,2.339,4.539,4.601,8.307,4.753 C11.844,30.136,11.87,31.051,12,32h18c0,0-2.949-7.652-2.937-17.339C28.838,13.423,30,11.399,30,9.107V0l-3.385,3.937 C23.055,2.062,19.587,3.937,19.587,3.937z M22,10h-2V8h2V10z M28,10h-2V8h2V10z"></path></svg>