<!-- Copyright © 2015 MODULUS Sp. z o. o. / FUTURAMO™ --><svg xmlns="http://www.w3.org/2000/svg" x="0px" y="0px" width="64px" height="64px" viewBox="0 0 32 32"><path  fill="#666666" d="M24.085,0c0,0-1.554,1.114-4.085,2h-8C9.469,1.114,7.916,0,7.916,0C1.852,8,3.873,14,3.873,14 C2,16,0,18,0,22s4,8,4,8l2.501-3.544C10.067,30.034,16,32,16,32s5.934-1.966,9.499-5.544L27.111,30c0,0,4.889-4,4.889-8 s-2-6-3.873-8C28.127,14,30.148,8,24.085,0z M6,12c0-1.847,1.26-3.409,3.015-3.848l1.364,0.816 c-0.952,0.154-1.692,0.943-1.692,1.938c0,1.104,0.896,2,2,2s2-0.896,2-2c0-0.225-0.06-0.432-0.128-0.634l1.46,0.874 c-0.003,0.127-0.006,0.243-0.009,0.327C14.005,11.697,14,11.886,14,12c0,2.206-1.794,4-4,4S6,14.206,6,12z M16,12 c0,1.543,0.6,2.937,1.557,4h-3.114C15.4,14.937,16,13.543,16,12z M18,12c0-0.114-0.005-0.303-0.011-0.527 c-0.002-0.084-0.006-0.201-0.009-0.327l1.574-0.942c-0.057,0.186-0.116,0.372-0.116,0.577c0,1.104,0.896,2,2,2c1.104,0,2-0.896,2-2 c0-0.973-0.708-1.746-1.629-1.925l1.176-0.704C24.74,8.591,26,10.153,26,12c0,2.206-1.794,4-4,4S18,14.206,18,12z M8.488,2.656 C9.235,3.045,11.66,4,11.66,4h8.68c0,0,2.425-0.955,3.173-1.344c1.145,1.751,1.854,3.348,2.294,4.751 c-0.896-0.734-1.999-1.228-3.219-1.348L16,10L9.412,6.059C8.192,6.18,7.09,6.672,6.194,7.406C6.635,6.003,7.344,4.407,8.488,2.656z  M30,22c0,1.499-1.131,3.225-2.261,4.55l-0.419-0.922l-1.197-2.631c0,0-4.248,4.628-10.123,6.875 c-3.958-1.163-9.762-6.512-9.762-6.512l-1.372,1.943l-0.989,1.402C2.936,25.358,2,23.589,2,22c0-3.082,1.392-4.564,3.153-6.441 l0.021-0.023C6.267,17.023,8.014,18,10,18c1.032,0,1.989-0.285,2.837-0.744L16,22l3.163-4.744C20.011,17.715,20.968,18,22,18 c1.986,0,3.733-0.977,4.826-2.464l0.021,0.023C28.608,17.436,30,18.918,30,22z"></path></svg>