<!-- Copyright © 2015 MODULUS Sp. z o. o. / FUTURAMO™ --><svg xmlns="http://www.w3.org/2000/svg" x="0px" y="0px" width="64px" height="64px" viewBox="0 0 32 32"><path  fill="#666666" d="M31.842,16.133c-0.283-1.775-0.942-3.444-1.91-4.943c0.008-0.009,0.016-0.02,0.023-0.029 c0.504-0.581,0.961-1.3,1.323-2.41C32.157,6.069,31.987,0,31.987,0s-7.012,0.11-10.125,1.959c-1.824,1.084-2.596,1.815-2.938,2.284 c-0.013,0.017-0.036,0.04-0.047,0.056C17.942,4.15,16.984,4.06,16,4.06s-1.942,0.089-2.877,0.238 c-0.011-0.016-0.034-0.039-0.047-0.056c-0.342-0.469-1.113-1.2-2.938-2.284C7.026,0.11,0.013,0,0.013,0s-0.17,6.069,0.708,8.751 c0.362,1.11,0.819,1.83,1.323,2.41c0.008,0.009,0.016,0.021,0.023,0.029c-0.968,1.499-1.627,3.168-1.91,4.943 c-0.007,0.045-0.017,0.088-0.023,0.133c-0.085,0.579-0.131,1.169-0.133,1.769C0.024,25.751,7.177,32,16,32 s15.976-6.249,15.998-13.966c-0.002-0.6-0.048-1.19-0.133-1.769C31.859,16.221,31.849,16.178,31.842,16.133z M22.883,3.678 c1.685-1.001,4.597-1.481,7.113-1.628c-0.032,2.172-0.2,4.802-0.619,6.08c-0.213,0.65-0.446,1.07-0.67,1.385 c-1.89-2.164-4.477-3.827-7.475-4.736C21.59,4.501,22.11,4.138,22.883,3.678z M2.005,2.05C4.52,2.198,7.432,2.678,9.117,3.678 c0.773,0.46,1.293,0.823,1.65,1.102C7.769,5.688,5.182,7.352,3.293,9.515C3.069,9.2,2.835,8.779,2.622,8.128 C2.174,6.761,2.033,4.067,2.005,2.05z M17.679,29.764l-0.055,0.01l-0.055,0.013C16.977,29.932,16.479,30,16,30 s-0.977-0.068-1.569-0.213l-0.055-0.013l-0.055-0.01C10.658,29.078,8,26.217,8,22.96c0-3.839,3.589-6.961,8-6.961s8,3.123,8,6.961 C24,26.217,21.342,29.078,17.679,29.764z M30,18.061c0,3.79-2.089,7.166-5.329,9.355C25.516,26.103,26,24.582,26,22.96 c0-4.941-4.486-8.961-10-8.961S6,18.019,6,22.96c0,1.621,0.484,3.143,1.329,4.456C4.089,25.228,2,21.851,2,18.061 c0-0.009,0.002-0.018,0.002-0.027C2.002,18.022,2,18.011,2,17.999c0-2.401,0.835-4.633,2.257-6.511 c1.826-2.412,4.632-4.224,7.934-5.026c1.213-0.295,2.487-0.463,3.81-0.463s2.597,0.168,3.81,0.463 c3.302,0.802,6.108,2.614,7.934,5.026C29.165,13.366,30,15.599,30,17.999c0,0.012-0.002,0.023-0.002,0.035 C29.998,18.043,30,18.052,30,18.061z M12,22.061h2v2h-2V22.061z M18,22.061h2v2h-2V22.061z M12,12.061c0,1.105-0.896,2-2,2 c-1.104,0-2-0.896-2-2s0.896-2,2-2C11.104,10.061,12,10.956,12,12.061z M24,12.061c0,1.105-0.896,2-2,2c-1.105,0-2-0.896-2-2 s0.896-2,2-2C23.105,10.061,24,10.956,24,12.061z"></path></svg>