<!-- Copyright © 2015 MODULUS Sp. z o. o. / FUTURAMO™ --><svg xmlns="http://www.w3.org/2000/svg" x="0px" y="0px" width="64px" height="64px" viewBox="0 0 32 32"><path  fill="#666666" d="M28.428,18.553L30,17.318c-1.398-1.79-5.069-4.212-9.512-1.618c-1.272-0.877-2.804-1.443-4.488-1.611V0h-2 v14.09c-1.683,0.168-3.215,0.734-4.486,1.61C5.07,13.107,1.396,15.534,0,17.318l1.572,1.234c0.289-0.362,2.68-3.113,6.33-1.42 c-0.701,0.806-1.224,1.728-1.539,2.736c-1.703,0.126-3.125,0.644-4.21,1.592C0.063,23.291,0.002,25.889,0,26h2 c0-0.018,0.064-1.803,1.471-3.033c0.652-0.57,1.507-0.921,2.541-1.072C6.011,21.931,6,21.964,6,22c0,0.863,0.193,1.678,0.477,2.456 c-1.1,0.577-1.986,1.334-2.61,2.3C2.456,28.947,2.789,31.372,2.907,32h1.948c-0.135-0.805-0.302-2.672,0.693-4.158 c0.435-0.65,1.096-1.146,1.87-1.563C9.016,28.51,11.805,30,15,30c3.219,0,6.022-1.514,7.613-3.773 c0.779,0.415,1.4,0.941,1.826,1.597c0.969,1.485,0.723,3.568,0.624,4.176h2.029c0.118-0.628,0.451-3.053-0.96-5.244 c-0.627-0.97-1.499-1.745-2.601-2.325C23.81,23.66,24,22.853,24,22c0-0.036-0.011-0.069-0.012-0.104 c1.027,0.149,1.875,0.495,2.524,1.055C27.936,24.182,28,25.98,28,26h2c0,0-0.063-2.709-2.154-4.539 c-1.083-0.946-2.509-1.459-4.208-1.586c-0.315-1.012-0.84-1.937-1.545-2.746C25.746,15.431,28.138,18.191,28.428,18.553z M15,28 c-3.859,0-7-2.692-7-6s3.141-6,7-6s7,2.692,7,6S18.859,28,15,28z M10,22h2v2h-2V22z M18,22h2v2h-2V22z"></path></svg>