<!-- Copyright © 2015 MODULUS Sp. z o. o. / FUTURAMO™ --><svg xmlns="http://www.w3.org/2000/svg" x="0px" y="0px" width="64px" height="64px" viewBox="0 0 32 32"><path  fill="#666666" d="M30.348,19.664l1.527-1.289c-1.854-2.199-3.998-3.4-6.375-3.568c-0.922-0.067-1.787,0.039-2.586,0.226 c-0.233-0.305-0.499-0.589-0.798-0.857c1.522-1.229,4.523-2.616,8.774,0.218L32,12.729c-5.65-3.768-9.708-1.365-11.55,0.287 c-0.417-0.21-0.861-0.392-1.33-0.541C19.663,11.792,20,10.939,20,10c0-2.209-1.791-4-4-4c-2.209,0-4,1.791-4,4 c0,0.939,0.337,1.792,0.879,2.474c-0.409,0.13-0.791,0.296-1.161,0.473C9.959,11.299,5.82,8.628,0,12.512l1.109,1.664 c4.345-2.901,7.402-1.354,8.891-0.107c-0.286,0.245-0.551,0.502-0.782,0.78c-0.835-0.21-1.751-0.327-2.719-0.261 c-2.377,0.17-4.521,1.369-6.375,3.568l1.527,1.289c1.488-1.766,3.162-2.729,4.975-2.861c0.552-0.042,1.076,0.011,1.581,0.097 C8.08,17.107,8,17.545,8,18c0,0.277,0.06,0.541,0.108,0.807C5.633,19.567,2.92,21.26,1.191,24.93L3,25.781 c1.475-3.131,3.775-4.532,5.849-5.141C10.154,22.623,12.852,24,16,24c3.039,0,5.651-1.286,7.005-3.159 C25.122,21.431,27.501,22.82,29,26l1.809-0.852c-1.737-3.685-4.463-5.376-6.945-6.132C23.939,18.685,24,18.348,24,18 c0-0.378-0.059-0.745-0.148-1.104c0.482-0.079,0.98-0.129,1.506-0.095C27.176,16.93,28.854,17.895,30.348,19.664z M14,10 c0-1.103,0.897-2,2-2s2,0.897,2,2s-0.897,2-2,2S14,11.103,14,10z M22,18c0,0.199-0.047,0.392-0.091,0.584 c-0.162,0.697-0.602,1.335-1.245,1.871C19.554,21.383,17.871,22,16,22c-2.02,0-3.843-0.708-4.936-1.763 c-0.564-0.544-0.905-1.185-1.006-1.865C10.04,18.247,10,18.127,10,18c0-0.253,0.045-0.5,0.116-0.742 c0.181-0.612,0.588-1.171,1.146-1.654C12.369,14.642,14.089,14,16,14c2,0,3.803,0.696,4.9,1.734 c0.538,0.509,0.883,1.102,1.017,1.735C21.954,17.645,22,17.819,22,18z"></path></svg>