<!-- Copyright © 2015 MODULUS Sp. z o. o. / FUTURAMO™ --><svg xmlns="http://www.w3.org/2000/svg" x="0px" y="0px" width="64px" height="64px" viewBox="0 0 32 32"><path  fill="#666666" d="M25.096,9.502c0.623,2.998-1.189,16.654-15.57,16.439c3.1-1.723,3.413-2.044,5.6-4.441 c-2.645,0.439-4.395-0.048-6.25-1.027l6.292-1.973c-3.953,0.036-7.01-1.188-9.057-2.889h5.381c-2.699-1.153-5.292-3.301-6.129-5.645 c3.851,3.062,8.209,3.822,12.963,4.064c-0.512-2.258-1.387-4.816,0.774-6.553C20.939,5.998,24.473,6.504,25.096,9.502z M32,0v32H0V0 H32z M30,7.428c-1.03,0.468-2.137,0.786-3.3,0.928c1.187-0.729,2.097-1.883,2.526-3.259c-1.11,0.675-2.339,1.166-3.648,1.43 c-4.022-4.396-11.06-0.21-9.788,5.372c-4.774-0.245-9.008-2.59-11.841-6.154c-0.494,0.87-2.168,4.81,1.778,7.865 c-1.294,0.035-2.602-0.738-2.602-0.738s-0.141,4.737,4.608,5.85c-1.331,0.391-2.594,0.101-2.594,0.101s1.044,3.899,5.365,4.09 C6.949,25.895,2.45,25.407,2,25.354c5.521,3.63,13.109,3.533,18.422-0.453c4.407-3.306,6.966-8.936,6.712-14.423 c0.972-0.72,1.806-1.618,2.519-2.607C29.752,7.768,29.864,7.636,30,7.428z"></path></svg>